<svg width="148" height="38" viewBox="0 0 148 38" fill="none" xmlns="http://www.w3.org/2000/svg">
<rect width="148" height="38" rx="8" fill="#F17228" fill-opacity="0.1"/>
<path d="M42 17C41.5078 17 40.9805 17.1055 40.5234 17.2461L39.3633 15.3125H42.2812C42.7383 15.3125 43.125 14.9609 43.125 14.4688V13.3438C43.125 12.8867 42.7383 12.5 42.2812 12.5H40.6641C40.418 12.5 40.207 12.6055 40.0312 12.7812L38.7305 14.2578L37.9219 12.9219C37.7812 12.6758 37.5 12.5 37.2188 12.5H34.4062C34.0898 12.5 33.8438 12.7812 33.8438 13.0625V13.625C33.8438 13.9414 34.0898 14.1875 34.4062 14.1875H36.7266L37.3945 15.3125H31.9805C31.3828 14.5039 30.4336 13.9062 28.5 13.9062H26.5312C26.0742 13.9062 25.6523 14.293 25.6875 14.7852C25.6875 15.2422 26.0391 15.5938 26.5312 15.5938H28.5C29.3438 15.5938 29.8359 15.9805 30.1523 16.4727L29.7656 17.2109C29.3086 17.0703 28.8164 17 28.3242 17.0352C25.9336 17.1055 24.0352 19.0391 24 21.3945C23.9297 23.9609 25.9688 26 28.5 26C30.5742 26 32.332 24.5938 32.8594 22.625H35.8125C36.2695 22.625 36.6562 22.2383 36.6562 21.7461C36.5859 20.0938 37.2539 18.4766 38.625 17.3516L39.0469 18.0898C38.0977 18.9336 37.4648 20.1641 37.5 21.5352C37.5 23.9961 39.5039 26 41.9297 26C44.4609 26.0352 46.5 23.9961 46.5 21.4648C46.4648 19.0391 44.4609 17.0352 42 17ZM28.5 24.3125C26.918 24.3125 25.6875 23.082 25.6875 21.5C25.6875 19.9531 26.918 18.6875 28.5 18.6875C28.6406 18.6875 28.7812 18.7227 28.9219 18.7227L27.4805 21.3945C27.1641 21.957 27.5508 22.625 28.2188 22.625H31.0664C30.6094 23.6445 29.625 24.3125 28.5 24.3125ZM44.7773 21.6758C44.707 23.082 43.5469 24.2422 42.1406 24.3125C40.5234 24.418 39.1875 23.1172 39.1875 21.5C39.1875 20.7617 39.4688 20.0938 39.9609 19.5664L41.6836 22.4844C41.8594 22.7305 42.1758 22.8359 42.457 22.6602L42.9492 22.3789C43.1953 22.2383 43.3008 21.8867 43.125 21.6055L41.4375 18.7578C41.6133 18.7227 41.7891 18.7227 42 18.7227C43.582 18.6875 44.8828 20.0586 44.7773 21.6758Z" fill="#F17228"/>
<path d="M58.35 25H61.878C65.298 25 67.656 23.146 67.656 19.096C67.656 15.028 65.298 13.282 61.716 13.282H58.35V25ZM61.158 22.75V15.532H61.554C63.444 15.532 64.794 16.306 64.794 19.096C64.794 21.868 63.444 22.75 61.554 22.75H61.158ZM73.6269 25.216C74.6889 25.216 75.9129 24.874 76.8489 24.208L75.9489 22.534C75.3189 22.894 74.6709 23.092 74.0229 23.092C72.8889 23.092 72.0429 22.57 71.7909 21.364H77.0649C77.1189 21.112 77.1729 20.644 77.1729 20.14C77.1729 17.71 75.9129 15.838 73.3209 15.838C71.1789 15.838 69.0909 17.62 69.0909 20.518C69.0909 23.506 71.0709 25.216 73.6269 25.216ZM71.7549 19.492C71.9349 18.448 72.6009 17.944 73.3929 17.944C74.4009 17.944 74.7969 18.61 74.7969 19.492H71.7549ZM81.4845 25.216C82.0965 25.216 82.5645 25.108 82.8705 24.982L82.5465 22.93C82.4025 22.966 82.3305 22.966 82.2225 22.966C82.0065 22.966 81.7185 22.786 81.7185 22.21V12.418H78.9465V22.102C78.9465 23.974 79.5765 25.216 81.4845 25.216ZM84.1672 25H86.9392V16.054H84.1672V25ZM85.5532 14.794C86.4712 14.794 87.1192 14.236 87.1192 13.354C87.1192 12.49 86.4712 11.932 85.5532 11.932C84.6352 11.932 83.9872 12.49 83.9872 13.354C83.9872 14.236 84.6352 14.794 85.5532 14.794ZM91.2821 25H94.5041L97.3841 16.054H94.7201L93.6221 20.176C93.4061 21.058 93.1721 21.994 92.9381 22.93H92.8661C92.6501 21.994 92.4161 21.058 92.2001 20.176L91.0841 16.054H88.2941L91.2821 25ZM102.613 25.216C103.675 25.216 104.899 24.874 105.835 24.208L104.935 22.534C104.305 22.894 103.657 23.092 103.009 23.092C101.875 23.092 101.029 22.57 100.777 21.364H106.051C106.105 21.112 106.159 20.644 106.159 20.14C106.159 17.71 104.899 15.838 102.307 15.838C100.165 15.838 98.0773 17.62 98.0773 20.518C98.0773 23.506 100.057 25.216 102.613 25.216ZM100.741 19.492C100.921 18.448 101.587 17.944 102.379 17.944C103.387 17.944 103.783 18.61 103.783 19.492H100.741ZM107.933 25H110.705V19.888C111.173 18.7 111.983 18.268 112.649 18.268C113.045 18.268 113.243 18.304 113.567 18.376L114.089 16.018C113.837 15.892 113.531 15.838 113.009 15.838C112.109 15.838 111.119 16.396 110.471 17.602H110.399L110.201 16.054H107.933V25ZM116.414 28.456C118.556 28.456 119.51 27.322 120.392 25.018L123.47 16.054H120.806L119.78 19.762C119.546 20.608 119.366 21.454 119.168 22.3H119.096C118.862 21.418 118.664 20.59 118.412 19.762L117.188 16.054H114.398L117.836 24.748L117.71 25.18C117.494 25.828 117.062 26.278 116.198 26.278C116.018 26.278 115.892 26.26 115.604 26.188L115.118 28.24C115.478 28.384 115.838 28.456 116.414 28.456Z" fill="#F17228"/>
</svg>
