<svg width="199" height="61" viewBox="0 0 199 61" fill="none" xmlns="http://www.w3.org/2000/svg">
<rect y="0.44165" width="199" height="60" rx="8" fill="url(#paint0_linear_0_56)"/>
<path d="M61.8086 35.3049L59.0742 32.5706C58.9375 32.4612 58.7734 32.3792 58.6094 32.3792H58.1719C58.9102 31.4221 59.375 30.219 59.375 28.8792C59.375 25.762 56.8047 23.1917 53.6875 23.1917C50.543 23.1917 48 25.762 48 28.8792C48 32.0237 50.543 34.5667 53.6875 34.5667C55 34.5667 56.2031 34.1292 57.1875 33.3635V33.8284C57.1875 33.9924 57.2422 34.1565 57.3789 34.2932L60.0859 37.0002C60.3594 37.2737 60.7695 37.2737 61.0156 37.0002L61.7812 36.2346C62.0547 35.9885 62.0547 35.5784 61.8086 35.3049ZM53.6875 32.3792C51.7461 32.3792 50.1875 30.8206 50.1875 28.8792C50.1875 26.9651 51.7461 25.3792 53.6875 25.3792C55.6016 25.3792 57.1875 26.9651 57.1875 28.8792C57.1875 30.8206 55.6016 32.3792 53.6875 32.3792Z" fill="white"/>
<path d="M73.6332 36.4417H76.4412V31.9597H80.4372V29.6197H76.4412V27.0636H81.1212V24.7236H73.6332V36.4417ZM82.927 36.4417H85.699V27.4957H82.927V36.4417ZM84.313 26.2356C85.231 26.2356 85.879 25.6776 85.879 24.7957C85.879 23.9316 85.231 23.3737 84.313 23.3737C83.395 23.3737 82.747 23.9316 82.747 24.7957C82.747 25.6776 83.395 26.2356 84.313 26.2356ZM87.9719 36.4417H90.7439V30.4477C91.3019 29.9436 91.6799 29.6377 92.3099 29.6377C93.0299 29.6377 93.3539 30.0156 93.3539 31.2577V36.4417H96.1439V30.8976C96.1439 28.6657 95.3159 27.2797 93.3719 27.2797C92.1479 27.2797 91.2479 27.8916 90.5099 28.6116H90.4379L90.2399 27.4957H87.9719V36.4417ZM101.529 36.6577C102.375 36.6577 103.257 36.2077 103.887 35.5777H103.941L104.139 36.4417H106.425V23.8596H103.635V26.8657L103.725 28.1976C103.149 27.6396 102.555 27.2797 101.565 27.2797C99.7114 27.2797 97.8754 29.0437 97.8754 31.9597C97.8754 34.8757 99.3154 36.6577 101.529 36.6577ZM102.267 34.3717C101.313 34.3717 100.737 33.6517 100.737 31.9417C100.737 30.2676 101.439 29.5477 102.231 29.5477C102.681 29.5477 103.203 29.6916 103.635 30.0697V33.6337C103.221 34.1917 102.807 34.3717 102.267 34.3717ZM112.498 36.4417H115.306V31.9597H119.302V29.6197H115.306V27.0636H119.986V24.7236H112.498V36.4417ZM125.328 36.6577C127.614 36.6577 129.72 34.9297 129.72 31.9597C129.72 28.9896 127.614 27.2797 125.328 27.2797C123.06 27.2797 120.954 28.9896 120.954 31.9597C120.954 34.9297 123.06 36.6577 125.328 36.6577ZM125.328 34.4077C124.284 34.4077 123.798 33.4537 123.798 31.9597C123.798 30.4836 124.284 29.5117 125.328 29.5117C126.372 29.5117 126.858 30.4836 126.858 31.9597C126.858 33.4537 126.372 34.4077 125.328 34.4077ZM135.348 36.6577C137.634 36.6577 139.74 34.9297 139.74 31.9597C139.74 28.9896 137.634 27.2797 135.348 27.2797C133.08 27.2797 130.974 28.9896 130.974 31.9597C130.974 34.9297 133.08 36.6577 135.348 36.6577ZM135.348 34.4077C134.304 34.4077 133.818 33.4537 133.818 31.9597C133.818 30.4836 134.304 29.5117 135.348 29.5117C136.392 29.5117 136.878 30.4836 136.878 31.9597C136.878 33.4537 136.392 34.4077 135.348 34.4077ZM144.701 36.6577C145.547 36.6577 146.429 36.2077 147.059 35.5777H147.113L147.311 36.4417H149.597V23.8596H146.807V26.8657L146.897 28.1976C146.321 27.6396 145.727 27.2797 144.737 27.2797C142.883 27.2797 141.047 29.0437 141.047 31.9597C141.047 34.8757 142.487 36.6577 144.701 36.6577ZM145.439 34.3717C144.485 34.3717 143.909 33.6517 143.909 31.9417C143.909 30.2676 144.611 29.5477 145.403 29.5477C145.853 29.5477 146.375 29.6916 146.807 30.0697V33.6337C146.393 34.1917 145.979 34.3717 145.439 34.3717Z" fill="white"/>
<defs>
<linearGradient id="paint0_linear_0_56" x1="-79" y1="-23.0002" x2="266" y2="91.4997" gradientUnits="userSpaceOnUse">
<stop stop-color="#FF7A7A"/>
<stop offset="1" stop-color="#F75900"/>
</linearGradient>
</defs>
</svg>
