<svg width="856" height="109" viewBox="0 0 856 109" fill="none" xmlns="http://www.w3.org/2000/svg">
<rect width="856" height="108" transform="translate(0 0.44165)" fill="white"/>
<rect x="24" y="29.9417" width="593" height="49" rx="8" fill="#F5F5F5"/>
<path d="M48.0625 65.4729C48.4844 66.1292 49.4688 66.1292 49.8906 65.4729C56.7344 55.6292 58 54.5979 58 50.9417C58 45.9729 53.9688 41.9417 49 41.9417C43.9844 41.9417 40 45.9729 40 50.9417C40 54.5979 41.2188 55.6292 48.0625 65.4729ZM49 54.6917C46.8906 54.6917 45.25 53.051 45.25 50.9417C45.25 48.8792 46.8906 47.1917 49 47.1917C51.0625 47.1917 52.75 48.8792 52.75 50.9417C52.75 53.051 51.0625 54.6917 49 54.6917Z" fill="#FF7474"/>
<path d="M78.9297 60.4417H71.7666V47.592H78.9297V48.9192H73.2607V53.0588H78.5869V54.3772H73.2607V59.1057H78.9297V60.4417ZM88.1582 60.4417V54.2102C88.1582 53.425 87.9795 52.8391 87.6221 52.4524C87.2646 52.0657 86.7051 51.8723 85.9434 51.8723C84.9355 51.8723 84.1973 52.1448 83.7285 52.6897C83.2598 53.2346 83.0254 54.134 83.0254 55.3879V60.4417H81.5664V50.8088H82.7529L82.9902 52.1272H83.0605C83.3594 51.6526 83.7783 51.2864 84.3174 51.0286C84.8564 50.7649 85.457 50.6331 86.1191 50.6331C87.2793 50.6331 88.1523 50.9143 88.7383 51.4768C89.3242 52.0334 89.6172 52.927 89.6172 54.1575V60.4417H88.1582ZM95.7344 59.4133C95.9922 59.4133 96.2412 59.3958 96.4814 59.3606C96.7217 59.3196 96.9121 59.2786 97.0527 59.2375V60.3538C96.8945 60.4299 96.6602 60.4915 96.3496 60.5383C96.0449 60.5911 95.7695 60.6174 95.5234 60.6174C93.6602 60.6174 92.7285 59.636 92.7285 57.6731V51.9426H91.3486V51.2395L92.7285 50.6331L93.3438 48.5764H94.1875V50.8088H96.9824V51.9426H94.1875V57.6116C94.1875 58.1917 94.3252 58.637 94.6006 58.9475C94.876 59.2581 95.2539 59.4133 95.7344 59.4133ZM103.056 60.6174C101.632 60.6174 100.507 60.1838 99.6807 59.3167C98.8604 58.4495 98.4502 57.2454 98.4502 55.7043C98.4502 54.1516 98.8311 52.9182 99.5928 52.0042C100.36 51.0901 101.389 50.6331 102.678 50.6331C103.885 50.6331 104.84 51.0315 105.543 51.8284C106.246 52.6194 106.598 53.6653 106.598 54.9661V55.8889H99.9619C99.9912 57.0198 100.275 57.8782 100.814 58.4641C101.359 59.05 102.124 59.343 103.108 59.343C104.146 59.343 105.171 59.1262 106.185 58.6926V59.9934C105.669 60.2161 105.18 60.3743 104.717 60.468C104.26 60.5676 103.706 60.6174 103.056 60.6174ZM102.66 51.8547C101.887 51.8547 101.269 52.1067 100.806 52.6106C100.349 53.1145 100.079 53.8118 99.9971 54.7024H105.033C105.033 53.7825 104.828 53.0793 104.418 52.593C104.008 52.1008 103.422 51.8547 102.66 51.8547ZM113.488 50.6331C113.916 50.6331 114.3 50.6682 114.64 50.7385L114.438 52.092C114.039 52.0042 113.688 51.9602 113.383 51.9602C112.604 51.9602 111.936 52.2766 111.379 52.9094C110.828 53.5422 110.553 54.3303 110.553 55.2737V60.4417H109.094V50.8088H110.298L110.465 52.593H110.535C110.893 51.9661 111.323 51.4827 111.827 51.1428C112.331 50.803 112.885 50.6331 113.488 50.6331ZM124.606 54.0168L128.034 47.592H129.651L125.362 55.4583V60.4417H123.851V55.5286L119.57 47.592H121.205L124.606 54.0168ZM139.521 55.6165C139.521 57.1868 139.126 58.4143 138.335 59.2991C137.544 60.178 136.451 60.6174 135.057 60.6174C134.195 60.6174 133.431 60.4153 132.763 60.011C132.095 59.6067 131.579 59.0266 131.216 58.2708C130.853 57.5149 130.671 56.6301 130.671 55.6165C130.671 54.0461 131.063 52.8245 131.849 51.9514C132.634 51.0725 133.724 50.6331 135.118 50.6331C136.466 50.6331 137.535 51.0813 138.326 51.9778C139.123 52.8743 139.521 54.0872 139.521 55.6165ZM132.183 55.6165C132.183 56.8469 132.429 57.7844 132.921 58.429C133.413 59.0735 134.137 59.3958 135.092 59.3958C136.047 59.3958 136.771 59.0764 137.263 58.4377C137.761 57.7932 138.01 56.8528 138.01 55.6165C138.01 54.3918 137.761 53.4631 137.263 52.8303C136.771 52.1917 136.041 51.8723 135.074 51.8723C134.119 51.8723 133.398 52.1858 132.912 52.8127C132.426 53.4397 132.183 54.3743 132.183 55.6165ZM143.459 50.8088V57.0579C143.459 57.843 143.638 58.429 143.995 58.8157C144.353 59.2024 144.912 59.3958 145.674 59.3958C146.682 59.3958 147.417 59.1204 147.88 58.5696C148.349 58.0188 148.583 57.1194 148.583 55.8713V50.8088H150.042V60.4417H148.838L148.627 59.1497H148.548C148.249 59.6243 147.833 59.9875 147.3 60.2395C146.772 60.4915 146.169 60.6174 145.489 60.6174C144.317 60.6174 143.438 60.3391 142.853 59.7825C142.272 59.2258 141.982 58.3352 141.982 57.1106V50.8088H143.459ZM157.539 50.6331C157.967 50.6331 158.351 50.6682 158.69 50.7385L158.488 52.092C158.09 52.0042 157.738 51.9602 157.434 51.9602C156.654 51.9602 155.986 52.2766 155.43 52.9094C154.879 53.5422 154.604 54.3303 154.604 55.2737V60.4417H153.145V50.8088H154.349L154.516 52.593H154.586C154.943 51.9661 155.374 51.4827 155.878 51.1428C156.382 50.803 156.936 50.6331 157.539 50.6331ZM173.465 60.4417L171.865 56.3547H166.715L165.133 60.4417H163.621L168.701 47.5393H169.958L175.012 60.4417H173.465ZM171.399 55.01L169.905 51.0286C169.712 50.5247 169.513 49.9065 169.308 49.1741C169.179 49.7366 168.994 50.3547 168.754 51.0286L167.242 55.01H171.399ZM183.115 59.1497H183.036C182.362 60.1282 181.354 60.6174 180.013 60.6174C178.753 60.6174 177.771 60.1868 177.068 59.3254C176.371 58.4641 176.022 57.2395 176.022 55.6516C176.022 54.0637 176.374 52.8303 177.077 51.9514C177.78 51.0725 178.759 50.6331 180.013 50.6331C181.319 50.6331 182.321 51.1077 183.019 52.0569H183.133L183.071 51.3625L183.036 50.6858V46.7659H184.495V60.4417H183.309L183.115 59.1497ZM180.197 59.3958C181.193 59.3958 181.914 59.1262 182.359 58.5872C182.811 58.0422 183.036 57.1663 183.036 55.9592V55.6516C183.036 54.2864 182.808 53.3137 182.351 52.7336C181.899 52.1477 181.176 51.8547 180.18 51.8547C179.324 51.8547 178.668 52.1887 178.211 52.8567C177.76 53.5188 177.534 54.4563 177.534 55.6692C177.534 56.8997 177.76 57.8284 178.211 58.4553C178.662 59.0823 179.324 59.3958 180.197 59.3958ZM194.154 59.1497H194.075C193.401 60.1282 192.394 60.6174 191.052 60.6174C189.792 60.6174 188.811 60.1868 188.107 59.3254C187.41 58.4641 187.062 57.2395 187.062 55.6516C187.062 54.0637 187.413 52.8303 188.116 51.9514C188.819 51.0725 189.798 50.6331 191.052 50.6331C192.358 50.6331 193.36 51.1077 194.058 52.0569H194.172L194.11 51.3625L194.075 50.6858V46.7659H195.534V60.4417H194.348L194.154 59.1497ZM191.236 59.3958C192.232 59.3958 192.953 59.1262 193.398 58.5872C193.85 58.0422 194.075 57.1663 194.075 55.9592V55.6516C194.075 54.2864 193.847 53.3137 193.39 52.7336C192.938 52.1477 192.215 51.8547 191.219 51.8547C190.363 51.8547 189.707 52.1887 189.25 52.8567C188.799 53.5188 188.573 54.4563 188.573 55.6692C188.573 56.8997 188.799 57.8284 189.25 58.4553C189.701 59.0823 190.363 59.3958 191.236 59.3958ZM203.031 50.6331C203.459 50.6331 203.843 50.6682 204.183 50.7385L203.98 52.092C203.582 52.0042 203.23 51.9602 202.926 51.9602C202.146 51.9602 201.479 52.2766 200.922 52.9094C200.371 53.5422 200.096 54.3303 200.096 55.2737V60.4417H198.637V50.8088H199.841L200.008 52.593H200.078C200.436 51.9661 200.866 51.4827 201.37 51.1428C201.874 50.803 202.428 50.6331 203.031 50.6331ZM210.054 60.6174C208.63 60.6174 207.505 60.1838 206.679 59.3167C205.858 58.4495 205.448 57.2454 205.448 55.7043C205.448 54.1516 205.829 52.9182 206.591 52.0042C207.358 51.0901 208.387 50.6331 209.676 50.6331C210.883 50.6331 211.838 51.0315 212.541 51.8284C213.244 52.6194 213.596 53.6653 213.596 54.9661V55.8889H206.96C206.989 57.0198 207.273 57.8782 207.812 58.4641C208.357 59.05 209.122 59.343 210.106 59.343C211.144 59.343 212.169 59.1262 213.183 58.6926V59.9934C212.667 60.2161 212.178 60.3743 211.715 60.468C211.258 60.5676 210.704 60.6174 210.054 60.6174ZM209.658 51.8547C208.885 51.8547 208.267 52.1067 207.804 52.6106C207.347 53.1145 207.077 53.8118 206.995 54.7024H212.031C212.031 53.7825 211.826 53.0793 211.416 52.593C211.006 52.1008 210.42 51.8547 209.658 51.8547ZM222.306 57.8137C222.306 58.7102 221.972 59.4016 221.304 59.8879C220.636 60.3743 219.698 60.6174 218.491 60.6174C217.214 60.6174 216.218 60.4153 215.503 60.011V58.6575C215.966 58.8918 216.461 59.0764 216.988 59.2112C217.521 59.3459 218.034 59.4133 218.526 59.4133C219.288 59.4133 219.874 59.2932 220.284 59.053C220.694 58.8069 220.899 58.4348 220.899 57.9368C220.899 57.5618 220.735 57.2424 220.407 56.9788C220.085 56.7092 219.452 56.3928 218.509 56.0295C217.612 55.6956 216.974 55.4055 216.593 55.1594C216.218 54.9075 215.937 54.6233 215.749 54.3069C215.567 53.9905 215.477 53.6125 215.477 53.1731C215.477 52.3879 215.796 51.7698 216.435 51.3186C217.073 50.8616 217.949 50.6331 219.062 50.6331C220.1 50.6331 221.113 50.844 222.104 51.2659L221.585 52.4524C220.618 52.054 219.742 51.8547 218.957 51.8547C218.266 51.8547 217.744 51.9631 217.393 52.1799C217.041 52.3967 216.865 52.6956 216.865 53.0764C216.865 53.3342 216.93 53.554 217.059 53.7356C217.193 53.9172 217.407 54.0901 217.7 54.2542C217.993 54.4182 218.556 54.6555 219.388 54.9661C220.53 55.3821 221.301 55.801 221.699 56.2229C222.104 56.6448 222.306 57.175 222.306 57.8137ZM230.901 57.8137C230.901 58.7102 230.567 59.4016 229.899 59.8879C229.231 60.3743 228.294 60.6174 227.087 60.6174C225.81 60.6174 224.813 60.4153 224.099 60.011V58.6575C224.562 58.8918 225.057 59.0764 225.584 59.2112C226.117 59.3459 226.63 59.4133 227.122 59.4133C227.884 59.4133 228.47 59.2932 228.88 59.053C229.29 58.8069 229.495 58.4348 229.495 57.9368C229.495 57.5618 229.331 57.2424 229.003 56.9788C228.681 56.7092 228.048 56.3928 227.104 56.0295C226.208 55.6956 225.569 55.4055 225.188 55.1594C224.813 54.9075 224.532 54.6233 224.345 54.3069C224.163 53.9905 224.072 53.6125 224.072 53.1731C224.072 52.3879 224.392 51.7698 225.03 51.3186C225.669 50.8616 226.545 50.6331 227.658 50.6331C228.695 50.6331 229.709 50.844 230.699 51.2659L230.181 52.4524C229.214 52.054 228.338 51.8547 227.553 51.8547C226.861 51.8547 226.34 51.9631 225.988 52.1799C225.637 52.3967 225.461 52.6956 225.461 53.0764C225.461 53.3342 225.525 53.554 225.654 53.7356C225.789 53.9172 226.003 54.0901 226.296 54.2542C226.589 54.4182 227.151 54.6555 227.983 54.9661C229.126 55.3821 229.896 55.801 230.295 56.2229C230.699 56.6448 230.901 57.175 230.901 57.8137Z" fill="#9E9E9E"/>
<rect x="633" y="24.4417" width="199" height="60" rx="8" fill="url(#paint0_linear_0_51)"/>
<path d="M694.809 59.3049L692.074 56.5706C691.938 56.4612 691.773 56.3792 691.609 56.3792H691.172C691.91 55.4221 692.375 54.219 692.375 52.8792C692.375 49.762 689.805 47.1917 686.688 47.1917C683.543 47.1917 681 49.762 681 52.8792C681 56.0237 683.543 58.5667 686.688 58.5667C688 58.5667 689.203 58.1292 690.188 57.3635V57.8284C690.188 57.9924 690.242 58.1565 690.379 58.2932L693.086 61.0002C693.359 61.2737 693.77 61.2737 694.016 61.0002L694.781 60.2346C695.055 59.9885 695.055 59.5784 694.809 59.3049ZM686.688 56.3792C684.746 56.3792 683.188 54.8206 683.188 52.8792C683.188 50.9651 684.746 49.3792 686.688 49.3792C688.602 49.3792 690.188 50.9651 690.188 52.8792C690.188 54.8206 688.602 56.3792 686.688 56.3792Z" fill="white"/>
<path d="M706.633 60.4417H709.441V55.9597H713.437V53.6197H709.441V51.0636H714.121V48.7236H706.633V60.4417ZM715.927 60.4417H718.699V51.4957H715.927V60.4417ZM717.313 50.2356C718.231 50.2356 718.879 49.6776 718.879 48.7957C718.879 47.9316 718.231 47.3737 717.313 47.3737C716.395 47.3737 715.747 47.9316 715.747 48.7957C715.747 49.6776 716.395 50.2356 717.313 50.2356ZM720.972 60.4417H723.744V54.4477C724.302 53.9436 724.68 53.6377 725.31 53.6377C726.03 53.6377 726.354 54.0156 726.354 55.2577V60.4417H729.144V54.8976C729.144 52.6657 728.316 51.2797 726.372 51.2797C725.148 51.2797 724.248 51.8916 723.51 52.6116H723.438L723.24 51.4957H720.972V60.4417ZM734.529 60.6577C735.375 60.6577 736.257 60.2077 736.887 59.5777H736.941L737.139 60.4417H739.425V47.8596H736.635V50.8657L736.725 52.1976C736.149 51.6396 735.555 51.2797 734.565 51.2797C732.711 51.2797 730.875 53.0437 730.875 55.9597C730.875 58.8757 732.315 60.6577 734.529 60.6577ZM735.267 58.3717C734.313 58.3717 733.737 57.6517 733.737 55.9417C733.737 54.2676 734.439 53.5477 735.231 53.5477C735.681 53.5477 736.203 53.6916 736.635 54.0697V57.6337C736.221 58.1917 735.807 58.3717 735.267 58.3717ZM745.498 60.4417H748.306V55.9597H752.302V53.6197H748.306V51.0636H752.986V48.7236H745.498V60.4417ZM758.328 60.6577C760.614 60.6577 762.72 58.9297 762.72 55.9597C762.72 52.9896 760.614 51.2797 758.328 51.2797C756.06 51.2797 753.954 52.9896 753.954 55.9597C753.954 58.9297 756.06 60.6577 758.328 60.6577ZM758.328 58.4077C757.284 58.4077 756.798 57.4537 756.798 55.9597C756.798 54.4836 757.284 53.5117 758.328 53.5117C759.372 53.5117 759.858 54.4836 759.858 55.9597C759.858 57.4537 759.372 58.4077 758.328 58.4077ZM768.348 60.6577C770.634 60.6577 772.74 58.9297 772.74 55.9597C772.74 52.9896 770.634 51.2797 768.348 51.2797C766.08 51.2797 763.974 52.9896 763.974 55.9597C763.974 58.9297 766.08 60.6577 768.348 60.6577ZM768.348 58.4077C767.304 58.4077 766.818 57.4537 766.818 55.9597C766.818 54.4836 767.304 53.5117 768.348 53.5117C769.392 53.5117 769.878 54.4836 769.878 55.9597C769.878 57.4537 769.392 58.4077 768.348 58.4077ZM777.701 60.6577C778.547 60.6577 779.429 60.2077 780.059 59.5777H780.113L780.311 60.4417H782.597V47.8596H779.807V50.8657L779.897 52.1976C779.321 51.6396 778.727 51.2797 777.737 51.2797C775.883 51.2797 774.047 53.0437 774.047 55.9597C774.047 58.8757 775.487 60.6577 777.701 60.6577ZM778.439 58.3717C777.485 58.3717 776.909 57.6517 776.909 55.9417C776.909 54.2676 777.611 53.5477 778.403 53.5477C778.853 53.5477 779.375 53.6916 779.807 54.0697V57.6337C779.393 58.1917 778.979 58.3717 778.439 58.3717Z" fill="white"/>
<defs>
<linearGradient id="paint0_linear_0_51" x1="554" y1="0.999754" x2="899" y2="115.5" gradientUnits="userSpaceOnUse">
<stop stop-color="#FF7A7A"/>
<stop offset="1" stop-color="#F75900"/>
</linearGradient>
</defs>
</svg>
