<svg width="856" height="86" viewBox="0 0 856 86" fill="none" xmlns="http://www.w3.org/2000/svg">
<rect width="856" height="86" fill="white"/>
<rect x="24" y="24" width="148" height="38" rx="8" fill="#F17228" fill-opacity="0.1"/>
<path d="M66 41C65.5078 41 64.9805 41.1055 64.5234 41.2461L63.3633 39.3125H66.2812C66.7383 39.3125 67.125 38.9609 67.125 38.4688V37.3438C67.125 36.8867 66.7383 36.5 66.2812 36.5H64.6641C64.418 36.5 64.207 36.6055 64.0312 36.7812L62.7305 38.2578L61.9219 36.9219C61.7812 36.6758 61.5 36.5 61.2188 36.5H58.4062C58.0898 36.5 57.8438 36.7812 57.8438 37.0625V37.625C57.8438 37.9414 58.0898 38.1875 58.4062 38.1875H60.7266L61.3945 39.3125H55.9805C55.3828 38.5039 54.4336 37.9062 52.5 37.9062H50.5312C50.0742 37.9062 49.6523 38.293 49.6875 38.7852C49.6875 39.2422 50.0391 39.5938 50.5312 39.5938H52.5C53.3438 39.5938 53.8359 39.9805 54.1523 40.4727L53.7656 41.2109C53.3086 41.0703 52.8164 41 52.3242 41.0352C49.9336 41.1055 48.0352 43.0391 48 45.3945C47.9297 47.9609 49.9688 50 52.5 50C54.5742 50 56.332 48.5938 56.8594 46.625H59.8125C60.2695 46.625 60.6562 46.2383 60.6562 45.7461C60.5859 44.0938 61.2539 42.4766 62.625 41.3516L63.0469 42.0898C62.0977 42.9336 61.4648 44.1641 61.5 45.5352C61.5 47.9961 63.5039 50 65.9297 50C68.4609 50.0352 70.5 47.9961 70.5 45.4648C70.4648 43.0391 68.4609 41.0352 66 41ZM52.5 48.3125C50.918 48.3125 49.6875 47.082 49.6875 45.5C49.6875 43.9531 50.918 42.6875 52.5 42.6875C52.6406 42.6875 52.7812 42.7227 52.9219 42.7227L51.4805 45.3945C51.1641 45.957 51.5508 46.625 52.2188 46.625H55.0664C54.6094 47.6445 53.625 48.3125 52.5 48.3125ZM68.7773 45.6758C68.707 47.082 67.5469 48.2422 66.1406 48.3125C64.5234 48.418 63.1875 47.1172 63.1875 45.5C63.1875 44.7617 63.4688 44.0938 63.9609 43.5664L65.6836 46.4844C65.8594 46.7305 66.1758 46.8359 66.457 46.6602L66.9492 46.3789C67.1953 46.2383 67.3008 45.8867 67.125 45.6055L65.4375 42.7578C65.6133 42.7227 65.7891 42.7227 66 42.7227C67.582 42.6875 68.8828 44.0586 68.7773 45.6758Z" fill="#F17228"/>
<path d="M82.35 49H85.878C89.298 49 91.656 47.146 91.656 43.096C91.656 39.028 89.298 37.282 85.716 37.282H82.35V49ZM85.158 46.75V39.532H85.554C87.444 39.532 88.794 40.306 88.794 43.096C88.794 45.868 87.444 46.75 85.554 46.75H85.158ZM97.6269 49.216C98.6889 49.216 99.9129 48.874 100.849 48.208L99.9489 46.534C99.3189 46.894 98.6709 47.092 98.0229 47.092C96.8889 47.092 96.0429 46.57 95.7909 45.364H101.065C101.119 45.112 101.173 44.644 101.173 44.14C101.173 41.71 99.9129 39.838 97.3209 39.838C95.1789 39.838 93.0909 41.62 93.0909 44.518C93.0909 47.506 95.0709 49.216 97.6269 49.216ZM95.7549 43.492C95.9349 42.448 96.6009 41.944 97.3929 41.944C98.4009 41.944 98.7969 42.61 98.7969 43.492H95.7549ZM105.485 49.216C106.097 49.216 106.564 49.108 106.871 48.982L106.547 46.93C106.403 46.966 106.331 46.966 106.223 46.966C106.007 46.966 105.719 46.786 105.719 46.21V36.418H102.947V46.102C102.947 47.974 103.577 49.216 105.485 49.216ZM108.167 49H110.939V40.054H108.167V49ZM109.553 38.794C110.471 38.794 111.119 38.236 111.119 37.354C111.119 36.49 110.471 35.932 109.553 35.932C108.635 35.932 107.987 36.49 107.987 37.354C107.987 38.236 108.635 38.794 109.553 38.794ZM115.282 49H118.504L121.384 40.054H118.72L117.622 44.176C117.406 45.058 117.172 45.994 116.938 46.93H116.866C116.65 45.994 116.416 45.058 116.2 44.176L115.084 40.054H112.294L115.282 49ZM126.613 49.216C127.675 49.216 128.899 48.874 129.835 48.208L128.935 46.534C128.305 46.894 127.657 47.092 127.009 47.092C125.875 47.092 125.029 46.57 124.777 45.364H130.051C130.105 45.112 130.159 44.644 130.159 44.14C130.159 41.71 128.899 39.838 126.307 39.838C124.165 39.838 122.077 41.62 122.077 44.518C122.077 47.506 124.057 49.216 126.613 49.216ZM124.741 43.492C124.921 42.448 125.587 41.944 126.379 41.944C127.387 41.944 127.783 42.61 127.783 43.492H124.741ZM131.933 49H134.705V43.888C135.173 42.7 135.983 42.268 136.649 42.268C137.045 42.268 137.243 42.304 137.567 42.376L138.089 40.018C137.837 39.892 137.531 39.838 137.009 39.838C136.109 39.838 135.119 40.396 134.471 41.602H134.399L134.201 40.054H131.933V49ZM140.414 52.456C142.556 52.456 143.51 51.322 144.392 49.018L147.47 40.054H144.806L143.78 43.762C143.546 44.608 143.366 45.454 143.168 46.3H143.096C142.862 45.418 142.664 44.59 142.412 43.762L141.188 40.054H138.398L141.836 48.748L141.71 49.18C141.494 49.828 141.062 50.278 140.198 50.278C140.018 50.278 139.892 50.26 139.604 50.188L139.118 52.24C139.478 52.384 139.838 52.456 140.414 52.456Z" fill="#F17228"/>
<path d="M216.375 39.875V38.75C216.375 36.2891 214.336 34.25 211.875 34.25C209.379 34.25 207.375 36.2891 207.375 38.75V39.875H204V49.4375C204 51.0195 205.23 52.25 206.812 52.25H216.938C218.484 52.25 219.75 51.0195 219.75 49.4375V39.875H216.375ZM209.625 38.75C209.625 37.5195 210.609 36.5 211.875 36.5C213.105 36.5 214.125 37.5195 214.125 38.75V39.875H209.625V38.75ZM215.25 42.9688C214.758 42.9688 214.406 42.6172 214.406 42.125C214.406 41.668 214.758 41.2812 215.25 41.2812C215.707 41.2812 216.094 41.668 216.094 42.125C216.094 42.6172 215.707 42.9688 215.25 42.9688ZM208.5 42.9688C208.008 42.9688 207.656 42.6172 207.656 42.125C207.656 41.668 208.008 41.2812 208.5 41.2812C208.957 41.2812 209.344 41.668 209.344 42.125C209.344 42.6172 208.957 42.9688 208.5 42.9688Z" fill="#757575"/>
<path d="M231.35 49H234.158V45.112H235.544C238.01 45.112 240.152 43.888 240.152 41.08C240.152 38.2 238.046 37.282 235.472 37.282H231.35V49ZM234.158 42.898V39.496H235.31C236.678 39.496 237.416 39.91 237.416 41.08C237.416 42.25 236.768 42.898 235.382 42.898H234.158ZM241.927 49H244.699V40.054H241.927V49ZM243.313 38.794C244.231 38.794 244.879 38.236 244.879 37.354C244.879 36.49 244.231 35.932 243.313 35.932C242.395 35.932 241.747 36.49 241.747 37.354C241.747 38.236 242.395 38.794 243.313 38.794ZM250.914 49.216C251.868 49.216 253.002 48.946 253.866 48.154L252.786 46.408C252.336 46.75 251.832 46.966 251.238 46.966C250.14 46.966 249.312 46.012 249.312 44.518C249.312 43.042 250.086 42.07 251.328 42.07C251.724 42.07 252.066 42.196 252.48 42.502L253.776 40.792C253.11 40.216 252.264 39.838 251.166 39.838C248.682 39.838 246.468 41.548 246.468 44.518C246.468 47.488 248.394 49.216 250.914 49.216ZM255.409 49H258.163V46.786L259.189 45.598L261.133 49H264.157L260.827 43.78L263.941 40.054H260.881L258.217 43.438H258.163V36.418H255.409V49ZM267.742 49.216C268.948 49.216 269.794 48.658 270.532 47.776H270.604L270.802 49H273.07V40.054H270.28V45.922C269.794 46.588 269.416 46.84 268.786 46.84C268.066 46.84 267.742 46.48 267.742 45.238V40.054H264.952V45.598C264.952 47.83 265.78 49.216 267.742 49.216ZM275.343 52.276H278.115V49.684L278.025 48.298C278.655 48.892 279.357 49.216 280.131 49.216C282.057 49.216 283.875 47.452 283.875 44.374C283.875 41.62 282.543 39.838 280.383 39.838C279.465 39.838 278.565 40.288 277.881 40.918H277.809L277.611 40.054H275.343V52.276ZM279.465 46.93C279.033 46.93 278.565 46.804 278.115 46.408V42.862C278.601 42.34 279.033 42.106 279.555 42.106C280.545 42.106 281.013 42.844 281.013 44.41C281.013 46.228 280.329 46.93 279.465 46.93Z" fill="#757575"/>
</svg>
