<svg width="197" height="124" viewBox="0 0 197 124" fill="none" xmlns="http://www.w3.org/2000/svg">
<g filter="url(#filter0_dd_0_220)">
<rect x="32" y="18" width="133" height="60" rx="8" fill="url(#paint0_linear_0_220)"/>
<path d="M64.1545 54.216C63.3865 54.216 62.6185 54.078 61.8505 53.802C61.0945 53.514 60.4165 53.088 59.8165 52.524L61.3285 50.706C61.7485 51.066 62.2105 51.36 62.7145 51.588C63.2305 51.816 63.7345 51.93 64.2265 51.93C64.7785 51.93 65.1865 51.828 65.4505 51.624C65.7265 51.42 65.8645 51.144 65.8645 50.796C65.8645 50.616 65.8225 50.46 65.7385 50.328C65.6665 50.196 65.5525 50.082 65.3965 49.986C65.2525 49.878 65.0725 49.782 64.8565 49.698C64.6525 49.602 64.4245 49.5 64.1725 49.392L62.6425 48.744C62.3425 48.624 62.0485 48.468 61.7605 48.276C61.4845 48.084 61.2325 47.862 61.0045 47.61C60.7885 47.346 60.6145 47.046 60.4825 46.71C60.3505 46.362 60.2845 45.972 60.2845 45.54C60.2845 45.06 60.3865 44.61 60.5905 44.19C60.7945 43.758 61.0825 43.386 61.4545 43.074C61.8265 42.75 62.2645 42.498 62.7685 42.318C63.2845 42.138 63.8485 42.048 64.4605 42.048C65.1445 42.048 65.8165 42.18 66.4765 42.444C67.1485 42.708 67.7365 43.092 68.2405 43.596L66.8905 45.27C66.5065 44.97 66.1225 44.742 65.7385 44.586C65.3545 44.418 64.9285 44.334 64.4605 44.334C64.0045 44.334 63.6385 44.43 63.3625 44.622C63.0985 44.802 62.9665 45.06 62.9665 45.396C62.9665 45.576 63.0085 45.732 63.0925 45.864C63.1885 45.984 63.3145 46.098 63.4705 46.206C63.6385 46.302 63.8305 46.398 64.0465 46.494C64.2625 46.578 64.4965 46.674 64.7485 46.782L66.2605 47.394C66.9805 47.682 67.5445 48.078 67.9525 48.582C68.3725 49.086 68.5825 49.752 68.5825 50.58C68.5825 51.072 68.4805 51.54 68.2765 51.984C68.0845 52.416 67.7965 52.8 67.4125 53.136C67.0405 53.46 66.5785 53.724 66.0265 53.928C65.4745 54.12 64.8505 54.216 64.1545 54.216ZM73.0405 54.216C72.0685 54.216 71.3605 53.898 70.9165 53.262C70.4845 52.626 70.2685 51.744 70.2685 50.616V45.072H72.9145V50.274C72.9145 50.922 73.0045 51.366 73.1845 51.606C73.3645 51.846 73.6465 51.966 74.0305 51.966C74.3665 51.966 74.6485 51.888 74.8765 51.732C75.1045 51.576 75.3505 51.324 75.6145 50.976V45.072H78.2605V54H76.1005L75.9025 52.758H75.8485C75.4645 53.214 75.0505 53.574 74.6065 53.838C74.1745 54.09 73.6525 54.216 73.0405 54.216ZM85.2689 54.216C84.8729 54.216 84.4709 54.12 84.0629 53.928C83.6669 53.724 83.2949 53.43 82.9469 53.046H82.8749L82.6589 54H80.5889V41.382H83.2349V44.478L83.1629 45.846C83.5109 45.534 83.8829 45.294 84.2789 45.126C84.6869 44.946 85.1009 44.856 85.5209 44.856C86.0609 44.856 86.5469 44.964 86.9789 45.18C87.4109 45.396 87.7769 45.702 88.0769 46.098C88.3889 46.482 88.6229 46.956 88.7789 47.52C88.9469 48.072 89.0309 48.69 89.0309 49.374C89.0309 50.142 88.9229 50.826 88.7069 51.426C88.5029 52.026 88.2209 52.536 87.8609 52.956C87.5129 53.364 87.1109 53.676 86.6549 53.892C86.2109 54.108 85.7489 54.216 85.2689 54.216ZM84.6569 52.056C85.1129 52.056 85.5029 51.852 85.8269 51.444C86.1509 51.024 86.3129 50.352 86.3129 49.428C86.3129 47.82 85.7969 47.016 84.7649 47.016C84.2369 47.016 83.7269 47.286 83.2349 47.826V51.48C83.4749 51.696 83.7149 51.846 83.9549 51.93C84.1949 52.014 84.4289 52.056 84.6569 52.056ZM93.4474 54.216C92.8594 54.216 92.2534 54.102 91.6294 53.874C91.0174 53.646 90.4834 53.346 90.0274 52.974L91.2154 51.318C91.6234 51.63 92.0134 51.864 92.3854 52.02C92.7574 52.176 93.1354 52.254 93.5194 52.254C93.9154 52.254 94.2034 52.188 94.3834 52.056C94.5634 51.924 94.6534 51.738 94.6534 51.498C94.6534 51.354 94.5994 51.228 94.4914 51.12C94.3954 51 94.2574 50.892 94.0774 50.796C93.9094 50.7 93.7174 50.616 93.5014 50.544C93.2854 50.46 93.0634 50.37 92.8354 50.274C92.5594 50.166 92.2834 50.04 92.0074 49.896C91.7314 49.752 91.4794 49.578 91.2514 49.374C91.0234 49.158 90.8374 48.912 90.6934 48.636C90.5494 48.348 90.4774 48.018 90.4774 47.646C90.4774 47.238 90.5554 46.86 90.7114 46.512C90.8794 46.164 91.1134 45.87 91.4134 45.63C91.7134 45.39 92.0734 45.204 92.4934 45.072C92.9134 44.928 93.3814 44.856 93.8974 44.856C94.5814 44.856 95.1814 44.976 95.6974 45.216C96.2134 45.444 96.6634 45.702 97.0474 45.99L95.8594 47.574C95.5354 47.334 95.2174 47.148 94.9054 47.016C94.5934 46.884 94.2814 46.818 93.9694 46.818C93.2974 46.818 92.9614 47.052 92.9614 47.52C92.9614 47.664 93.0094 47.79 93.1054 47.898C93.2014 47.994 93.3274 48.084 93.4834 48.168C93.6514 48.252 93.8374 48.336 94.0414 48.42C94.2574 48.492 94.4794 48.57 94.7074 48.654C94.9954 48.762 95.2774 48.888 95.5534 49.032C95.8414 49.164 96.0994 49.332 96.3274 49.536C96.5674 49.74 96.7594 49.992 96.9034 50.292C97.0474 50.58 97.1194 50.928 97.1194 51.336C97.1194 51.744 97.0414 52.122 96.8854 52.47C96.7294 52.818 96.4954 53.124 96.1834 53.388C95.8714 53.64 95.4874 53.844 95.0314 54C94.5754 54.144 94.0474 54.216 93.4474 54.216ZM102.688 54.216C102.064 54.216 101.482 54.114 100.942 53.91C100.414 53.694 99.9519 53.388 99.5559 52.992C99.1599 52.596 98.8479 52.11 98.6199 51.534C98.3919 50.946 98.2779 50.28 98.2779 49.536C98.2779 48.792 98.4039 48.132 98.6559 47.556C98.9079 46.968 99.2439 46.476 99.6639 46.08C100.096 45.684 100.594 45.384 101.158 45.18C101.722 44.964 102.31 44.856 102.922 44.856C103.474 44.856 103.96 44.946 104.38 45.126C104.812 45.306 105.196 45.534 105.532 45.81L104.29 47.52C103.87 47.172 103.468 46.998 103.084 46.998C102.436 46.998 101.926 47.226 101.554 47.682C101.182 48.138 100.996 48.756 100.996 49.536C100.996 50.316 101.182 50.934 101.554 51.39C101.938 51.846 102.418 52.074 102.994 52.074C103.282 52.074 103.558 52.014 103.822 51.894C104.098 51.762 104.356 51.606 104.596 51.426L105.64 53.154C105.196 53.538 104.716 53.814 104.2 53.982C103.684 54.138 103.18 54.216 102.688 54.216ZM107.202 54V45.072H109.362L109.542 46.638H109.614C109.938 46.026 110.328 45.576 110.784 45.288C111.24 45 111.696 44.856 112.152 44.856C112.404 44.856 112.608 44.874 112.764 44.91C112.932 44.934 113.082 44.976 113.214 45.036L112.782 47.322C112.614 47.274 112.458 47.238 112.314 47.214C112.17 47.19 112.002 47.178 111.81 47.178C111.474 47.178 111.12 47.298 110.748 47.538C110.388 47.778 110.088 48.204 109.848 48.816V54H107.202ZM114.374 54V45.072H117.02V54H114.374ZM115.688 43.758C115.244 43.758 114.878 43.632 114.59 43.38C114.302 43.116 114.158 42.78 114.158 42.372C114.158 41.964 114.302 41.634 114.59 41.382C114.878 41.13 115.244 41.004 115.688 41.004C116.144 41.004 116.51 41.13 116.786 41.382C117.074 41.634 117.218 41.964 117.218 42.372C117.218 42.78 117.074 43.116 116.786 43.38C116.51 43.632 116.144 43.758 115.688 43.758ZM124.029 54.216C123.633 54.216 123.231 54.12 122.823 53.928C122.427 53.724 122.055 53.43 121.707 53.046H121.635L121.419 54H119.349V41.382H121.995V44.478L121.923 45.846C122.271 45.534 122.643 45.294 123.039 45.126C123.447 44.946 123.861 44.856 124.281 44.856C124.821 44.856 125.307 44.964 125.739 45.18C126.171 45.396 126.537 45.702 126.837 46.098C127.149 46.482 127.383 46.956 127.539 47.52C127.707 48.072 127.791 48.69 127.791 49.374C127.791 50.142 127.683 50.826 127.467 51.426C127.263 52.026 126.981 52.536 126.621 52.956C126.273 53.364 125.871 53.676 125.415 53.892C124.971 54.108 124.509 54.216 124.029 54.216ZM123.417 52.056C123.873 52.056 124.263 51.852 124.587 51.444C124.911 51.024 125.073 50.352 125.073 49.428C125.073 47.82 124.557 47.016 123.525 47.016C122.997 47.016 122.487 47.286 121.995 47.826V51.48C122.235 51.696 122.475 51.846 122.715 51.93C122.955 52.014 123.189 52.056 123.417 52.056ZM133.663 54.216C133.027 54.216 132.433 54.114 131.881 53.91C131.329 53.694 130.849 53.388 130.441 52.992C130.033 52.584 129.715 52.092 129.487 51.516C129.259 50.94 129.145 50.28 129.145 49.536C129.145 48.816 129.265 48.168 129.505 47.592C129.745 47.004 130.057 46.512 130.441 46.116C130.837 45.708 131.287 45.396 131.791 45.18C132.295 44.964 132.817 44.856 133.357 44.856C133.993 44.856 134.545 44.964 135.013 45.18C135.493 45.396 135.889 45.696 136.201 46.08C136.525 46.464 136.765 46.92 136.921 47.448C137.077 47.964 137.155 48.528 137.155 49.14C137.155 49.38 137.143 49.608 137.119 49.824C137.095 50.04 137.071 50.202 137.047 50.31H131.701C131.821 50.958 132.085 51.438 132.493 51.75C132.913 52.05 133.423 52.2 134.023 52.2C134.659 52.2 135.301 52.002 135.949 51.606L136.831 53.208C136.375 53.52 135.865 53.766 135.301 53.946C134.749 54.126 134.203 54.216 133.663 54.216ZM131.683 48.564H134.905C134.905 48.06 134.791 47.652 134.563 47.34C134.335 47.028 133.951 46.872 133.411 46.872C132.991 46.872 132.619 47.01 132.295 47.286C131.983 47.562 131.779 47.988 131.683 48.564Z" fill="white"/>
</g>
<defs>
<filter id="filter0_dd_0_220" x="0" y="0" width="197" height="124" filterUnits="userSpaceOnUse" color-interpolation-filters="sRGB">
<feFlood flood-opacity="0" result="BackgroundImageFix"/>
<feColorMatrix in="SourceAlpha" type="matrix" values="0 0 0 0 0 0 0 0 0 0 0 0 0 0 0 0 0 0 127 0" result="hardAlpha"/>
<feOffset dy="14"/>
<feGaussianBlur stdDeviation="16"/>
<feColorMatrix type="matrix" values="0 0 0 0 1 0 0 0 0 0.698039 0 0 0 0 0.054902 0 0 0 0.29 0"/>
<feBlend mode="normal" in2="BackgroundImageFix" result="effect1_dropShadow_0_220"/>
<feColorMatrix in="SourceAlpha" type="matrix" values="0 0 0 0 0 0 0 0 0 0 0 0 0 0 0 0 0 0 127 0" result="hardAlpha"/>
<feOffset dy="5"/>
<feGaussianBlur stdDeviation="4"/>
<feColorMatrix type="matrix" values="0 0 0 0 0.870833 0 0 0 0 0.5926 0 0 0 0 0 0 0 0 0.24 0"/>
<feBlend mode="normal" in2="effect1_dropShadow_0_220" result="effect2_dropShadow_0_220"/>
<feBlend mode="normal" in="SourceGraphic" in2="effect2_dropShadow_0_220" result="shape"/>
</filter>
<linearGradient id="paint0_linear_0_220" x1="-26.4223" y1="-56.5001" x2="228.115" y2="-28.4846" gradientUnits="userSpaceOnUse">
<stop stop-color="#FFB800"/>
<stop offset="1" stop-color="#FF8A00"/>
</linearGradient>
</defs>
</svg>
