<svg width="593" height="50" viewBox="0 0 593 50" fill="none" xmlns="http://www.w3.org/2000/svg">
<rect y="0.94165" width="593" height="49" rx="8" fill="#F5F5F5"/>
<path d="M24.0625 36.4729C24.4844 37.1292 25.4688 37.1292 25.8906 36.4729C32.7344 26.6292 34 25.5979 34 21.9417C34 16.9729 29.9688 12.9417 25 12.9417C19.9844 12.9417 16 16.9729 16 21.9417C16 25.5979 17.2188 26.6292 24.0625 36.4729ZM25 25.6917C22.8906 25.6917 21.25 24.051 21.25 21.9417C21.25 19.8792 22.8906 18.1917 25 18.1917C27.0625 18.1917 28.75 19.8792 28.75 21.9417C28.75 24.051 27.0625 25.6917 25 25.6917Z" fill="#FF7474"/>
<path d="M54.9297 31.4417H47.7666V18.592H54.9297V19.9192H49.2607V24.0588H54.5869V25.3772H49.2607V30.1057H54.9297V31.4417ZM64.1582 31.4417V25.2102C64.1582 24.425 63.9795 23.8391 63.6221 23.4524C63.2646 23.0657 62.7051 22.8723 61.9434 22.8723C60.9355 22.8723 60.1973 23.1448 59.7285 23.6897C59.2598 24.2346 59.0254 25.134 59.0254 26.3879V31.4417H57.5664V21.8088H58.7529L58.9902 23.1272H59.0605C59.3594 22.6526 59.7783 22.2864 60.3174 22.0286C60.8564 21.7649 61.457 21.6331 62.1191 21.6331C63.2793 21.6331 64.1523 21.9143 64.7383 22.4768C65.3242 23.0334 65.6172 23.927 65.6172 25.1575V31.4417H64.1582ZM71.7344 30.4133C71.9922 30.4133 72.2412 30.3958 72.4814 30.3606C72.7217 30.3196 72.9121 30.2786 73.0527 30.2375V31.3538C72.8945 31.4299 72.6602 31.4915 72.3496 31.5383C72.0449 31.5911 71.7695 31.6174 71.5234 31.6174C69.6602 31.6174 68.7285 30.636 68.7285 28.6731V22.9426H67.3486V22.2395L68.7285 21.6331L69.3438 19.5764H70.1875V21.8088H72.9824V22.9426H70.1875V28.6116C70.1875 29.1917 70.3252 29.637 70.6006 29.9475C70.876 30.2581 71.2539 30.4133 71.7344 30.4133ZM79.0557 31.6174C77.6318 31.6174 76.5068 31.1838 75.6807 30.3167C74.8604 29.4495 74.4502 28.2454 74.4502 26.7043C74.4502 25.1516 74.8311 23.9182 75.5928 23.0042C76.3604 22.0901 77.3887 21.6331 78.6777 21.6331C79.8848 21.6331 80.8398 22.0315 81.543 22.8284C82.2461 23.6194 82.5977 24.6653 82.5977 25.9661V26.8889H75.9619C75.9912 28.0198 76.2754 28.8782 76.8145 29.4641C77.3594 30.05 78.124 30.343 79.1084 30.343C80.1455 30.343 81.1709 30.1262 82.1846 29.6926V30.9934C81.6689 31.2161 81.1797 31.3743 80.7168 31.468C80.2598 31.5676 79.7061 31.6174 79.0557 31.6174ZM78.6602 22.8547C77.8867 22.8547 77.2686 23.1067 76.8057 23.6106C76.3486 24.1145 76.0791 24.8118 75.9971 25.7024H81.0332C81.0332 24.7825 80.8281 24.0793 80.418 23.593C80.0078 23.1008 79.4219 22.8547 78.6602 22.8547ZM89.4883 21.6331C89.916 21.6331 90.2998 21.6682 90.6396 21.7385L90.4375 23.092C90.0391 23.0042 89.6875 22.9602 89.3828 22.9602C88.6035 22.9602 87.9355 23.2766 87.3789 23.9094C86.8281 24.5422 86.5527 25.3303 86.5527 26.2737V31.4417H85.0938V21.8088H86.2979L86.4648 23.593H86.5352C86.8926 22.9661 87.3232 22.4827 87.8271 22.1428C88.3311 21.803 88.8848 21.6331 89.4883 21.6331ZM100.606 25.0168L104.034 18.592H105.651L101.362 26.4583V31.4417H99.8506V26.5286L95.5703 18.592H97.2051L100.606 25.0168ZM115.521 26.6165C115.521 28.1868 115.126 29.4143 114.335 30.2991C113.544 31.178 112.451 31.6174 111.057 31.6174C110.195 31.6174 109.431 31.4153 108.763 31.011C108.095 30.6067 107.579 30.0266 107.216 29.2708C106.853 28.5149 106.671 27.6301 106.671 26.6165C106.671 25.0461 107.063 23.8245 107.849 22.9514C108.634 22.0725 109.724 21.6331 111.118 21.6331C112.466 21.6331 113.535 22.0813 114.326 22.9778C115.123 23.8743 115.521 25.0872 115.521 26.6165ZM108.183 26.6165C108.183 27.8469 108.429 28.7844 108.921 29.429C109.413 30.0735 110.137 30.3958 111.092 30.3958C112.047 30.3958 112.771 30.0764 113.263 29.4377C113.761 28.7932 114.01 27.8528 114.01 26.6165C114.01 25.3918 113.761 24.4631 113.263 23.8303C112.771 23.1917 112.041 22.8723 111.074 22.8723C110.119 22.8723 109.398 23.1858 108.912 23.8127C108.426 24.4397 108.183 25.3743 108.183 26.6165ZM119.459 21.8088V28.0579C119.459 28.843 119.638 29.429 119.995 29.8157C120.353 30.2024 120.912 30.3958 121.674 30.3958C122.682 30.3958 123.417 30.1204 123.88 29.5696C124.349 29.0188 124.583 28.1194 124.583 26.8713V21.8088H126.042V31.4417H124.838L124.627 30.1497H124.548C124.249 30.6243 123.833 30.9875 123.3 31.2395C122.772 31.4915 122.169 31.6174 121.489 31.6174C120.317 31.6174 119.438 31.3391 118.853 30.7825C118.272 30.2258 117.982 29.3352 117.982 28.1106V21.8088H119.459ZM133.539 21.6331C133.967 21.6331 134.351 21.6682 134.69 21.7385L134.488 23.092C134.09 23.0042 133.738 22.9602 133.434 22.9602C132.654 22.9602 131.986 23.2766 131.43 23.9094C130.879 24.5422 130.604 25.3303 130.604 26.2737V31.4417H129.145V21.8088H130.349L130.516 23.593H130.586C130.943 22.9661 131.374 22.4827 131.878 22.1428C132.382 21.803 132.936 21.6331 133.539 21.6331ZM149.465 31.4417L147.865 27.3547H142.715L141.133 31.4417H139.621L144.701 18.5393H145.958L151.012 31.4417H149.465ZM147.399 26.01L145.905 22.0286C145.712 21.5247 145.513 20.9065 145.308 20.1741C145.179 20.7366 144.994 21.3547 144.754 22.0286L143.242 26.01H147.399ZM159.115 30.1497H159.036C158.362 31.1282 157.354 31.6174 156.013 31.6174C154.753 31.6174 153.771 31.1868 153.068 30.3254C152.371 29.4641 152.022 28.2395 152.022 26.6516C152.022 25.0637 152.374 23.8303 153.077 22.9514C153.78 22.0725 154.759 21.6331 156.013 21.6331C157.319 21.6331 158.321 22.1077 159.019 23.0569H159.133L159.071 22.3625L159.036 21.6858V17.7659H160.495V31.4417H159.309L159.115 30.1497ZM156.197 30.3958C157.193 30.3958 157.914 30.1262 158.359 29.5872C158.811 29.0422 159.036 28.1663 159.036 26.9592V26.6516C159.036 25.2864 158.808 24.3137 158.351 23.7336C157.899 23.1477 157.176 22.8547 156.18 22.8547C155.324 22.8547 154.668 23.1887 154.211 23.8567C153.76 24.5188 153.534 25.4563 153.534 26.6692C153.534 27.8997 153.76 28.8284 154.211 29.4553C154.662 30.0823 155.324 30.3958 156.197 30.3958ZM170.154 30.1497H170.075C169.401 31.1282 168.394 31.6174 167.052 31.6174C165.792 31.6174 164.811 31.1868 164.107 30.3254C163.41 29.4641 163.062 28.2395 163.062 26.6516C163.062 25.0637 163.413 23.8303 164.116 22.9514C164.819 22.0725 165.798 21.6331 167.052 21.6331C168.358 21.6331 169.36 22.1077 170.058 23.0569H170.172L170.11 22.3625L170.075 21.6858V17.7659H171.534V31.4417H170.348L170.154 30.1497ZM167.236 30.3958C168.232 30.3958 168.953 30.1262 169.398 29.5872C169.85 29.0422 170.075 28.1663 170.075 26.9592V26.6516C170.075 25.2864 169.847 24.3137 169.39 23.7336C168.938 23.1477 168.215 22.8547 167.219 22.8547C166.363 22.8547 165.707 23.1887 165.25 23.8567C164.799 24.5188 164.573 25.4563 164.573 26.6692C164.573 27.8997 164.799 28.8284 165.25 29.4553C165.701 30.0823 166.363 30.3958 167.236 30.3958ZM179.031 21.6331C179.459 21.6331 179.843 21.6682 180.183 21.7385L179.98 23.092C179.582 23.0042 179.23 22.9602 178.926 22.9602C178.146 22.9602 177.479 23.2766 176.922 23.9094C176.371 24.5422 176.096 25.3303 176.096 26.2737V31.4417H174.637V21.8088H175.841L176.008 23.593H176.078C176.436 22.9661 176.866 22.4827 177.37 22.1428C177.874 21.803 178.428 21.6331 179.031 21.6331ZM186.054 31.6174C184.63 31.6174 183.505 31.1838 182.679 30.3167C181.858 29.4495 181.448 28.2454 181.448 26.7043C181.448 25.1516 181.829 23.9182 182.591 23.0042C183.358 22.0901 184.387 21.6331 185.676 21.6331C186.883 21.6331 187.838 22.0315 188.541 22.8284C189.244 23.6194 189.596 24.6653 189.596 25.9661V26.8889H182.96C182.989 28.0198 183.273 28.8782 183.812 29.4641C184.357 30.05 185.122 30.343 186.106 30.343C187.144 30.343 188.169 30.1262 189.183 29.6926V30.9934C188.667 31.2161 188.178 31.3743 187.715 31.468C187.258 31.5676 186.704 31.6174 186.054 31.6174ZM185.658 22.8547C184.885 22.8547 184.267 23.1067 183.804 23.6106C183.347 24.1145 183.077 24.8118 182.995 25.7024H188.031C188.031 24.7825 187.826 24.0793 187.416 23.593C187.006 23.1008 186.42 22.8547 185.658 22.8547ZM198.306 28.8137C198.306 29.7102 197.972 30.4016 197.304 30.8879C196.636 31.3743 195.698 31.6174 194.491 31.6174C193.214 31.6174 192.218 31.4153 191.503 31.011V29.6575C191.966 29.8918 192.461 30.0764 192.988 30.2112C193.521 30.3459 194.034 30.4133 194.526 30.4133C195.288 30.4133 195.874 30.2932 196.284 30.053C196.694 29.8069 196.899 29.4348 196.899 28.9368C196.899 28.5618 196.735 28.2424 196.407 27.9788C196.085 27.7092 195.452 27.3928 194.509 27.0295C193.612 26.6956 192.974 26.4055 192.593 26.1594C192.218 25.9075 191.937 25.6233 191.749 25.3069C191.567 24.9905 191.477 24.6125 191.477 24.1731C191.477 23.3879 191.796 22.7698 192.435 22.3186C193.073 21.8616 193.949 21.6331 195.062 21.6331C196.1 21.6331 197.113 21.844 198.104 22.2659L197.585 23.4524C196.618 23.054 195.742 22.8547 194.957 22.8547C194.266 22.8547 193.744 22.9631 193.393 23.1799C193.041 23.3967 192.865 23.6956 192.865 24.0764C192.865 24.3342 192.93 24.554 193.059 24.7356C193.193 24.9172 193.407 25.0901 193.7 25.2542C193.993 25.4182 194.556 25.6555 195.388 25.9661C196.53 26.3821 197.301 26.801 197.699 27.2229C198.104 27.6448 198.306 28.175 198.306 28.8137ZM206.901 28.8137C206.901 29.7102 206.567 30.4016 205.899 30.8879C205.231 31.3743 204.294 31.6174 203.087 31.6174C201.81 31.6174 200.813 31.4153 200.099 31.011V29.6575C200.562 29.8918 201.057 30.0764 201.584 30.2112C202.117 30.3459 202.63 30.4133 203.122 30.4133C203.884 30.4133 204.47 30.2932 204.88 30.053C205.29 29.8069 205.495 29.4348 205.495 28.9368C205.495 28.5618 205.331 28.2424 205.003 27.9788C204.681 27.7092 204.048 27.3928 203.104 27.0295C202.208 26.6956 201.569 26.4055 201.188 26.1594C200.813 25.9075 200.532 25.6233 200.345 25.3069C200.163 24.9905 200.072 24.6125 200.072 24.1731C200.072 23.3879 200.392 22.7698 201.03 22.3186C201.669 21.8616 202.545 21.6331 203.658 21.6331C204.695 21.6331 205.709 21.844 206.699 22.2659L206.181 23.4524C205.214 23.054 204.338 22.8547 203.553 22.8547C202.861 22.8547 202.34 22.9631 201.988 23.1799C201.637 23.3967 201.461 23.6956 201.461 24.0764C201.461 24.3342 201.525 24.554 201.654 24.7356C201.789 24.9172 202.003 25.0901 202.296 25.2542C202.589 25.4182 203.151 25.6555 203.983 25.9661C205.126 26.3821 205.896 26.801 206.295 27.2229C206.699 27.6448 206.901 28.175 206.901 28.8137Z" fill="#9E9E9E"/>
</svg>
