<svg width="334" height="60" viewBox="0 0 334 60" fill="none" xmlns="http://www.w3.org/2000/svg">
<rect width="334" height="60" rx="8" fill="#424242"/>
<path d="M39.5312 26.4531C38.4531 27.2969 37.0938 28.3281 32.3125 31.7969C31.375 32.5 29.6406 34.0469 28 34.0469C26.3125 34.0469 24.625 32.5 23.6406 31.7969C18.8594 28.3281 17.5 27.2969 16.4219 26.4531C16.2344 26.3125 16 26.4531 16 26.6875V36.25C16 37.5156 16.9844 38.5 18.25 38.5H37.75C38.9688 38.5 40 37.5156 40 36.25V26.6875C40 26.4531 39.7188 26.3125 39.5312 26.4531ZM28 32.5C29.0781 32.5469 30.625 31.1406 31.4219 30.5781C37.6562 26.0781 38.125 25.6562 39.5312 24.5312C39.8125 24.3438 40 24.0156 40 23.6406V22.75C40 21.5312 38.9688 20.5 37.75 20.5H18.25C16.9844 20.5 16 21.5312 16 22.75V23.6406C16 24.0156 16.1406 24.3438 16.4219 24.5312C17.8281 25.6562 18.2969 26.0781 24.5312 30.5781C25.3281 31.1406 26.875 32.5469 28 32.5Z" fill="#ADADAD"/>
<path d="M58.9297 36H51.7666V23.1504H58.9297V24.4775H53.2607V28.6172H58.5869V29.9355H53.2607V34.6641H58.9297V36ZM68.1582 36V29.7686C68.1582 28.9834 67.9795 28.3975 67.6221 28.0107C67.2646 27.624 66.7051 27.4307 65.9434 27.4307C64.9355 27.4307 64.1973 27.7031 63.7285 28.248C63.2598 28.793 63.0254 29.6924 63.0254 30.9463V36H61.5664V26.3672H62.7529L62.9902 27.6855H63.0605C63.3594 27.2109 63.7783 26.8447 64.3174 26.5869C64.8564 26.3232 65.457 26.1914 66.1191 26.1914C67.2793 26.1914 68.1523 26.4727 68.7383 27.0352C69.3242 27.5918 69.6172 28.4854 69.6172 29.7158V36H68.1582ZM75.7344 34.9717C75.9922 34.9717 76.2412 34.9541 76.4814 34.9189C76.7217 34.8779 76.9121 34.8369 77.0527 34.7959V35.9121C76.8945 35.9883 76.6602 36.0498 76.3496 36.0967C76.0449 36.1494 75.7695 36.1758 75.5234 36.1758C73.6602 36.1758 72.7285 35.1943 72.7285 33.2314V27.501H71.3486V26.7979L72.7285 26.1914L73.3438 24.1348H74.1875V26.3672H76.9824V27.501H74.1875V33.1699C74.1875 33.75 74.3252 34.1953 74.6006 34.5059C74.876 34.8164 75.2539 34.9717 75.7344 34.9717ZM83.0557 36.1758C81.6318 36.1758 80.5068 35.7422 79.6807 34.875C78.8604 34.0078 78.4502 32.8037 78.4502 31.2627C78.4502 29.71 78.8311 28.4766 79.5928 27.5625C80.3604 26.6484 81.3887 26.1914 82.6777 26.1914C83.8848 26.1914 84.8398 26.5898 85.543 27.3867C86.2461 28.1777 86.5977 29.2236 86.5977 30.5244V31.4473H79.9619C79.9912 32.5781 80.2754 33.4365 80.8145 34.0225C81.3594 34.6084 82.124 34.9014 83.1084 34.9014C84.1455 34.9014 85.1709 34.6846 86.1846 34.251V35.5518C85.6689 35.7744 85.1797 35.9326 84.7168 36.0264C84.2598 36.126 83.7061 36.1758 83.0557 36.1758ZM82.6602 27.4131C81.8867 27.4131 81.2686 27.665 80.8057 28.1689C80.3486 28.6729 80.0791 29.3701 79.9971 30.2607H85.0332C85.0332 29.3408 84.8281 28.6377 84.418 28.1514C84.0078 27.6592 83.4219 27.4131 82.6602 27.4131ZM93.4883 26.1914C93.916 26.1914 94.2998 26.2266 94.6396 26.2969L94.4375 27.6504C94.0391 27.5625 93.6875 27.5186 93.3828 27.5186C92.6035 27.5186 91.9355 27.835 91.3789 28.4678C90.8281 29.1006 90.5527 29.8887 90.5527 30.832V36H89.0938V26.3672H90.2979L90.4648 28.1514H90.5352C90.8926 27.5244 91.3232 27.041 91.8271 26.7012C92.3311 26.3613 92.8848 26.1914 93.4883 26.1914ZM104.606 29.5752L108.034 23.1504H109.651L105.362 31.0166V36H103.851V31.0869L99.5703 23.1504H101.205L104.606 29.5752ZM119.521 31.1748C119.521 32.7451 119.126 33.9727 118.335 34.8574C117.544 35.7363 116.451 36.1758 115.057 36.1758C114.195 36.1758 113.431 35.9736 112.763 35.5693C112.095 35.165 111.579 34.585 111.216 33.8291C110.853 33.0732 110.671 32.1885 110.671 31.1748C110.671 29.6045 111.063 28.3828 111.849 27.5098C112.634 26.6309 113.724 26.1914 115.118 26.1914C116.466 26.1914 117.535 26.6396 118.326 27.5361C119.123 28.4326 119.521 29.6455 119.521 31.1748ZM112.183 31.1748C112.183 32.4053 112.429 33.3428 112.921 33.9873C113.413 34.6318 114.137 34.9541 115.092 34.9541C116.047 34.9541 116.771 34.6348 117.263 33.9961C117.761 33.3516 118.01 32.4111 118.01 31.1748C118.01 29.9502 117.761 29.0215 117.263 28.3887C116.771 27.75 116.041 27.4307 115.074 27.4307C114.119 27.4307 113.398 27.7441 112.912 28.3711C112.426 28.998 112.183 29.9326 112.183 31.1748ZM123.459 26.3672V32.6162C123.459 33.4014 123.638 33.9873 123.995 34.374C124.353 34.7607 124.912 34.9541 125.674 34.9541C126.682 34.9541 127.417 34.6787 127.88 34.1279C128.349 33.5771 128.583 32.6777 128.583 31.4297V26.3672H130.042V36H128.838L128.627 34.708H128.548C128.249 35.1826 127.833 35.5459 127.3 35.7979C126.772 36.0498 126.169 36.1758 125.489 36.1758C124.317 36.1758 123.438 35.8975 122.853 35.3408C122.272 34.7842 121.982 33.8936 121.982 32.6689V26.3672H123.459ZM137.539 26.1914C137.967 26.1914 138.351 26.2266 138.69 26.2969L138.488 27.6504C138.09 27.5625 137.738 27.5186 137.434 27.5186C136.654 27.5186 135.986 27.835 135.43 28.4678C134.879 29.1006 134.604 29.8887 134.604 30.832V36H133.145V26.3672H134.349L134.516 28.1514H134.586C134.943 27.5244 135.374 27.041 135.878 26.7012C136.382 26.3613 136.936 26.1914 137.539 26.1914ZM149.237 36.1758C147.813 36.1758 146.688 35.7422 145.862 34.875C145.042 34.0078 144.632 32.8037 144.632 31.2627C144.632 29.71 145.013 28.4766 145.774 27.5625C146.542 26.6484 147.57 26.1914 148.859 26.1914C150.066 26.1914 151.021 26.5898 151.725 27.3867C152.428 28.1777 152.779 29.2236 152.779 30.5244V31.4473H146.144C146.173 32.5781 146.457 33.4365 146.996 34.0225C147.541 34.6084 148.306 34.9014 149.29 34.9014C150.327 34.9014 151.353 34.6846 152.366 34.251V35.5518C151.851 35.7744 151.361 35.9326 150.898 36.0264C150.441 36.126 149.888 36.1758 149.237 36.1758ZM148.842 27.4131C148.068 27.4131 147.45 27.665 146.987 28.1689C146.53 28.6729 146.261 29.3701 146.179 30.2607H151.215C151.215 29.3408 151.01 28.6377 150.6 28.1514C150.189 27.6592 149.604 27.4131 148.842 27.4131ZM167.554 36V29.7334C167.554 28.9658 167.39 28.3916 167.062 28.0107C166.733 27.624 166.224 27.4307 165.532 27.4307C164.624 27.4307 163.953 27.6914 163.52 28.2129C163.086 28.7344 162.869 29.5371 162.869 30.6211V36H161.41V29.7334C161.41 28.9658 161.246 28.3916 160.918 28.0107C160.59 27.624 160.077 27.4307 159.38 27.4307C158.466 27.4307 157.795 27.7061 157.367 28.2568C156.945 28.8018 156.734 29.6982 156.734 30.9463V36H155.275V26.3672H156.462L156.699 27.6855H156.77C157.045 27.2168 157.432 26.8506 157.93 26.5869C158.434 26.3232 158.996 26.1914 159.617 26.1914C161.123 26.1914 162.107 26.7363 162.57 27.8262H162.641C162.928 27.3223 163.344 26.9238 163.889 26.6309C164.434 26.3379 165.055 26.1914 165.752 26.1914C166.842 26.1914 167.656 26.4727 168.195 27.0352C168.74 27.5918 169.013 28.4854 169.013 29.7158V36H167.554ZM177.951 36L177.661 34.6289H177.591C177.11 35.2324 176.63 35.6426 176.149 35.8594C175.675 36.0703 175.08 36.1758 174.365 36.1758C173.41 36.1758 172.66 35.9297 172.115 35.4375C171.576 34.9453 171.307 34.2451 171.307 33.3369C171.307 31.3916 172.862 30.3721 175.974 30.2783L177.608 30.2256V29.6279C177.608 28.8721 177.444 28.3154 177.116 27.958C176.794 27.5947 176.275 27.4131 175.561 27.4131C174.758 27.4131 173.85 27.6592 172.836 28.1514L172.388 27.0352C172.862 26.7773 173.381 26.5752 173.943 26.4287C174.512 26.2822 175.08 26.209 175.648 26.209C176.797 26.209 177.646 26.4639 178.197 26.9736C178.754 27.4834 179.032 28.3008 179.032 29.4258V36H177.951ZM174.655 34.9717C175.563 34.9717 176.275 34.7227 176.791 34.2246C177.312 33.7266 177.573 33.0293 177.573 32.1328V31.2627L176.114 31.3242C174.954 31.3652 174.116 31.5469 173.601 31.8691C173.091 32.1855 172.836 32.6807 172.836 33.3545C172.836 33.8818 172.994 34.2832 173.311 34.5586C173.633 34.834 174.081 34.9717 174.655 34.9717ZM183.506 36H182.047V26.3672H183.506V36ZM181.924 23.7568C181.924 23.4229 182.006 23.1797 182.17 23.0273C182.334 22.8691 182.539 22.79 182.785 22.79C183.02 22.79 183.222 22.8691 183.392 23.0273C183.562 23.1855 183.646 23.4287 183.646 23.7568C183.646 24.085 183.562 24.3311 183.392 24.4951C183.222 24.6533 183.02 24.7324 182.785 24.7324C182.539 24.7324 182.334 24.6533 182.17 24.4951C182.006 24.3311 181.924 24.085 181.924 23.7568ZM188.059 36H186.6V22.3242H188.059V36Z" fill="#ADADAD"/>
</svg>
